# xmcd CD database file
#
# Track frame offsets:
#	150
#	19224
#	31608
#	43729
#	61074
#	77290
#	90779
#	103051
#	123491
#	140916
#	157708
#	173454
#	187761
#	206376
#	219306
#	237074
#
# Disc length: 3400 seconds
#
# Revision: 0
# Processed by: cddbd v1.5.2PL0 Copyright (c) Steve Scherf et al.
# Submitted via: CDex 1.70beta2
#
DISCID=b40d4610
DTITLE=Clint Black - The Greatest Hits
DYEAR=1900
DGENRE=Country
TTITLE0=Like The Rain
TTITLE1=Summer's Comin
TTITLE2=A Good Run Of Bad Luck
TTITLE3=State Of Mind
TTITLE4=A Bad Goodbye
TTITLE5=A Better Man
TTITLE6=Killin' Time
TTITLE7=We Tell Ourselves
TTITLE8=Half Way Up
TTITLE9=Burn One Down
TTITLE10=Cadillac Jack Favor
TTITLE11=Put Yourself In My Shoes
TTITLE12=Wherever You Go
TTITLE13=Life Gets Away
TTITLE14=No Time To Kill
TTITLE15=Desperado (live)
EXTD=
EXTT0=
EXTT1=
EXTT2=
EXTT3=
EXTT4=
EXTT5=
EXTT6=
EXTT7=
EXTT8=
EXTT9=
EXTT10=
EXTT11=
EXTT12=
EXTT13=
EXTT14=
EXTT15=
PLAYORDER=
